<?xml version="1.0" encoding="UTF-8" standalone="no"?>
<!-- Generator: Adobe Illustrator 19.0.0, SVG Export Plug-In . SVG Version: 6.00 Build 0)  -->

<svg
   version="1.1"
   id="Layer_1"
   x="0px"
   y="0px"
   viewBox="0 0 330 330"
   style="enable-background:new 0 0 330 330;"
   xml:space="preserve"
   sodipodi:docname="dl_svg.svg"
   inkscape:version="1.1 (c68e22c387, 2021-05-23)"
   xmlns:inkscape="http://www.inkscape.org/namespaces/inkscape"
   xmlns:sodipodi="http://sodipodi.sourceforge.net/DTD/sodipodi-0.dtd"
   xmlns="http://www.w3.org/2000/svg"
   xmlns:svg="http://www.w3.org/2000/svg"><defs
   id="defs38">
	
	
</defs><sodipodi:namedview
   id="namedview36"
   pagecolor="#ffffff"
   bordercolor="#666666"
   borderopacity="1.0"
   inkscape:pageshadow="2"
   inkscape:pageopacity="0.0"
   inkscape:pagecheckerboard="0"
   showgrid="false"
   inkscape:zoom="2.6454546"
   inkscape:cx="13.419244"
   inkscape:cy="154.98282"
   inkscape:window-width="2880"
   inkscape:window-height="1526"
   inkscape:window-x="5749"
   inkscape:window-y="-11"
   inkscape:window-maximized="1"
   inkscape:current-layer="Layer_1" />
<path
   id="XMLID_24_"
   d="m 179.99707,142.38281 c -4.63028,1.94636 -9.72426,3.02344 -15.07812,3.02344 -5.29487,0 -10.33255,-1.05505 -14.92188,-2.96094 v 88.25781 L 105.60645,186.3125 c -5.857003,-5.858 -15.354897,-5.858 -21.212897,0 -5.858,5.858 -5.858,15.35489 0,21.21289 l 69.996097,69.99414 c 0.351,0.351 0.71951,0.68305 1.10352,0.99805 0.169,0.138 0.34653,0.25867 0.51953,0.38867 0.218,0.164 0.4312,0.33337 0.6582,0.48437 0.212,0.142 0.43339,0.26454 0.65039,0.39454 0.202,0.121 0.39942,0.24837 0.60742,0.35937 0.223,0.12 0.45364,0.22113 0.68164,0.32813 0.215,0.102 0.42744,0.20978 0.64844,0.30078 0.223,0.092 0.44978,0.16609 0.67578,0.24609 0.236,0.085 0.46799,0.17505 0.70899,0.24805 0.226,0.068 0.45559,0.11878 0.68359,0.17578 0.246,0.062 0.48828,0.13164 0.73828,0.18164 0.263,0.052 0.52992,0.0831 0.79492,0.12109 0.219,0.031 0.43521,0.0737 0.65821,0.0957 0.492,0.048 0.98451,0.0742 1.47851,0.0742 0.494,0 0.98947,-0.0252 1.48047,-0.0742 0.226,-0.022 0.44302,-0.0657 0.66602,-0.0977 0.262,-0.037 0.52515,-0.0671 0.78515,-0.11914 0.255,-0.05 0.50391,-0.12059 0.75391,-0.18359 0.223,-0.057 0.44697,-0.10488 0.66797,-0.17188 0.246,-0.075 0.48361,-0.16791 0.72461,-0.25391 0.221,-0.08 0.44411,-0.15218 0.66211,-0.24218 0.225,-0.093 0.4392,-0.20069 0.6582,-0.30469 0.225,-0.106 0.45187,-0.20622 0.67187,-0.32422 0.21,-0.112 0.40833,-0.23933 0.61133,-0.36133 0.217,-0.13 0.43744,-0.25253 0.64844,-0.39453 0.222,-0.148 0.43153,-0.31365 0.64453,-0.47265 0.179,-0.134 0.36116,-0.2584 0.53516,-0.4004 0.365,-0.3 0.71383,-0.61721 1.04883,-0.94921 0.016,-0.016 0.0338,-0.027 0.0488,-0.043 l 70.00196,-69.99805 c 5.858,-5.858 5.858,-15.35489 0,-21.21289 -5.857,-5.857 -15.35489,-5.85895 -21.21289,-0.002 l -44.39649,44.39257 z"
   style="fill:#ffffff" /><path
   id="XMLID_25_"
   d="m 315,160 c -8.284,0 -15,6.716 -15,15 V 290 H 30 V 175 c 0,-8.284 -6.716,-15 -15,-15 -8.284,0 -15,6.716 -15,15 v 130 c 0,8.284 6.716,15 15,15 h 300 c 8.284,0 15,-6.716 15,-15 V 175 c 0,-8.284 -6.716,-15 -15,-15 z"
   style="fill:#ffffff" />
<g
   id="g5">
</g>
<g
   id="g7">
</g>
<g
   id="g9">
</g>
<g
   id="g11">
</g>
<g
   id="g13">
</g>
<g
   id="g15">
</g>
<g
   id="g17">
</g>
<g
   id="g19">
</g>
<g
   id="g21">
</g>
<g
   id="g23">
</g>
<g
   id="g25">
</g>
<g
   id="g27">
</g>
<g
   id="g29">
</g>
<g
   id="g31">
</g>
<g
   id="g33">
</g>
<path
   id="rect1381"
   style="opacity:1;fill:#ffffff;fill-opacity:0.994652;stroke:#000000;stroke-width:0;stroke-miterlimit:4;stroke-dasharray:none;stroke-dashoffset:0;stroke-opacity:1"
   d="m 45.030223,26.422104 c -23.128813,0 -41.7485786,18.61977 -41.7485786,41.748575 v 35.636661 c 0,23.12881 18.6197656,41.74859 41.7485786,41.74859 H 284.96978 c 23.12881,0 41.74858,-18.61978 41.74858,-41.74859 V 68.170679 c 0,-23.128805 -18.61977,-41.748575 -41.74858,-41.748575 z m 26.649837,0.08706 c 1.933054,0 4.012595,0.08743 6.23854,0.263155 2.284531,0.175732 4.569365,0.439976 6.853895,0.791442 2.343104,0.292888 4.627939,0.644554 6.853884,1.054596 2.284531,0.410044 4.392538,0.849131 6.325602,1.317752 V 43.994098 C 93.441505,42.70539 88.930775,41.739795 84.420299,41.095441 79.909823,40.39251 75.547435,40.040844 71.32984,40.040844 c -8.962367,0 -15.552637,1.494084 -19.770221,4.481541 -4.217584,2.987458 -6.327576,7.000163 -6.327576,12.037837 0,3.104612 0.849692,5.769595 2.548438,7.995545 1.757331,2.225948 4.042165,4.21806 6.853895,5.975388 2.811719,1.757329 6.005195,3.367315 9.578421,4.831754 3.63181,1.405864 7.321334,2.869487 11.070303,4.392505 3.74897,1.523017 7.410007,3.193923 10.983233,5.009832 3.63182,1.815906 6.853762,3.982862 9.665492,6.501689 2.811729,2.460264 5.066105,5.359034 6.764865,8.697953 1.75732,3.338932 2.63747,7.292682 2.63747,11.861742 0,5.44771 -1.11393,10.2227 -3.33988,14.32312 -2.225954,4.10044 -5.330023,7.52769 -9.313299,10.28084 -3.983277,2.69458 -8.786736,4.71516 -14.410185,6.06245 -5.564875,1.34728 -11.716049,2.02016 -18.452481,2.02016 -3.046037,0 -6.091162,-0.11591 -9.137199,-0.35021 -2.987453,-0.23432 -5.888199,-0.52704 -8.699928,-0.87851 -2.753145,-0.35146 -5.359186,-0.76207 -7.819449,-1.2307 -2.460263,-0.46861 -4.686158,-0.96664 -6.677797,-1.49384 v -15.11258 c 4.393328,1.64017 9.312689,2.92895 14.760405,3.86619 5.50629,0.93725 11.744891,1.40481 18.71563,1.40481 5.037665,0 9.314614,-0.38015 12.829276,-1.14166 3.573236,-0.82009 6.471996,-1.99099 8.697952,-3.514 2.28452,-1.5816 3.924966,-3.48628 4.92079,-5.71223 1.054399,-2.22595 1.582884,-4.77305 1.582884,-7.64336 0,-3.10461 -0.880154,-5.74111 -2.637485,-7.90848 -1.698747,-2.22596 -3.953129,-4.18959 -6.764848,-5.888333 -2.811729,-1.757331 -6.033682,-3.338838 -9.665492,-4.744703 -3.573237,-1.464439 -7.234273,-2.956544 -10.983233,-4.479558 -3.748969,-1.523023 -7.438493,-3.163469 -11.070303,-4.92079 -3.573236,-1.815909 -6.766702,-3.925902 -9.578431,-6.327583 -2.81172,-2.460259 -5.096554,-5.330546 -6.853885,-8.610891 -1.698756,-3.280347 -2.548449,-7.175168 -2.548449,-11.685645 0,-3.924699 0.821216,-7.791041 2.461388,-11.598585 1.640172,-3.807545 4.187274,-7.175859 7.643351,-10.104739 3.456078,-2.987457 7.879391,-5.388196 13.268533,-7.204102 5.447715,-1.815906 11.920097,-2.72454 19.418035,-2.72454 z m 204.20199,0 c 5.15482,0 10.04571,0.469547 14.67333,1.406789 4.68621,0.878664 9.16847,2.313807 13.44463,4.305445 v 15.55184 c -4.27616,-2.284527 -8.67099,-4.042855 -13.18147,-5.272985 -4.51047,-1.288707 -9.42984,-1.933097 -14.7604,-1.933097 -6.09208,0 -11.51144,1.083478 -16.25622,3.250849 -4.74479,2.167372 -8.75749,5.242961 -12.03783,9.226237 -3.22177,3.9247 -5.70994,8.669216 -7.46727,14.234089 -1.69874,5.564872 -2.54844,11.71605 -2.54844,18.452473 0,7.029314 0.70334,13.326853 2.1092,18.891726 1.40586,5.56487 3.60129,10.28091 6.58876,14.14703 2.98745,3.86613 6.79485,6.82383 11.42249,8.87404 4.6862,2.05022 10.28041,3.07476 16.78252,3.07476 1.11297,0 2.31434,-0.059 3.60304,-0.1761 1.28872,-0.11715 2.57749,-0.26351 3.8662,-0.43925 1.28871,-0.2343 2.51854,-0.49657 3.6901,-0.78946 1.23012,-0.2929 2.31361,-0.61608 3.25085,-0.96754 V 91.793257 H 265.60121 V 78.876913 h 38.92511 v 58.695337 c -2.40169,1.11297 -4.94879,2.10903 -7.64336,2.98769 -2.63599,0.87866 -5.35991,1.61048 -8.17163,2.19625 -2.75315,0.58578 -5.50753,1.02487 -8.26069,1.31775 -2.75314,0.29289 -5.41813,0.43926 -7.99554,0.43926 -7.8494,0 -14.93769,-1.22984 -21.26407,-3.6901 -6.26781,-2.46026 -11.62625,-6.09084 -16.07815,-10.89421 -4.39331,-4.86193 -7.79209,-10.89721 -10.19377,-18.10226 -2.34312,-7.20504 -3.514,-15.55166 -3.514,-25.041227 0,-9.430997 1.31725,-17.865033 3.95325,-25.304388 2.63599,-7.497934 6.32749,-13.825934 11.07227,-18.980764 4.80336,-5.213406 10.54393,-9.16717 17.22179,-11.861739 6.73642,-2.753148 14.14592,-4.12935 22.22963,-4.12935 z M 117.01981,28.09007 h 17.66103 l 24.77808,77.41096 7.02998,22.66889 7.20411,-22.66889 24.86711,-77.41096 h 16.6935 l -39.01217,114.84222 h -21.08797 z" /></svg>
